# Wavefront OBJ file automatically generated by Tiled2Unity

# Vertices (Count = 169)
v -0.32 -0.64 0
v -0.64 -0.64 0
v -0.64 -0.32 0
v -0.32 -0.32 0
v -0.96 -0.64 0
v -0.96 -0.32 0
v -1.28 -0.64 0
v -1.28 -0.32 0
v -1.6 -0.64 0
v -1.6 -0.32 0
v -1.92 -0.64 0
v -1.92 -0.32 0
v -2.24 -0.64 0
v -2.24 -0.32 0
v -2.56 -0.64 0
v -2.56 -0.32 0
v -2.88 -0.64 0
v -2.88 -0.32 0
v -3.2 -0.64 0
v -3.2 -0.32 0
v -3.52 -0.64 0
v -3.52 -0.32 0
v -0.32 -0.96 0
v -0.64 -0.96 0
v -0.96 -0.96 0
v -1.28 -0.96 0
v -1.6 -0.96 0
v -1.92 -0.96 0
v -2.24 -0.96 0
v -2.56 -0.96 0
v -2.88 -0.96 0
v -3.2 -0.96 0
v -3.52 -0.96 0
v -0.32 -1.28 0
v -0.64 -1.28 0
v -0.96 -1.28 0
v -1.28 -1.28 0
v -1.6 -1.28 0
v -1.92 -1.28 0
v -2.24 -1.28 0
v -2.56 -1.28 0
v -2.88 -1.28 0
v -3.2 -1.28 0
v -3.52 -1.28 0
v -0.32 -1.6 0
v -0.64 -1.6 0
v -0.96 -1.6 0
v -1.28 -1.6 0
v -1.6 -1.6 0
v -1.92 -1.6 0
v -2.24 -1.6 0
v -2.56 -1.6 0
v -2.88 -1.6 0
v -3.2 -1.6 0
v -3.52 -1.6 0
v -0.32 -1.92 0
v -0.64 -1.92 0
v -0.96 -1.92 0
v -1.28 -1.92 0
v -1.6 -1.92 0
v -1.92 -1.92 0
v -2.24 -1.92 0
v -2.56 -1.92 0
v -2.88 -1.92 0
v -3.2 -1.92 0
v -3.52 -1.92 0
v -0.32 -2.24 0
v -0.64 -2.24 0
v -0.96 -2.24 0
v -1.28 -2.24 0
v -1.6 -2.24 0
v -1.92 -2.24 0
v -2.24 -2.24 0
v -2.56 -2.24 0
v -2.88 -2.24 0
v -3.2 -2.24 0
v -3.52 -2.24 0
v -0.32 -2.56 0
v -0.64 -2.56 0
v -0.96 -2.56 0
v -1.28 -2.56 0
v -1.6 -2.56 0
v -1.92 -2.56 0
v -2.24 -2.56 0
v -2.56 -2.56 0
v -2.88 -2.56 0
v -3.2 -2.56 0
v -3.52 -2.56 0
v -0.32 -2.88 0
v -0.64 -2.88 0
v -0.96 -2.88 0
v -1.28 -2.88 0
v -1.6 -2.88 0
v -1.92 -2.88 0
v -2.24 -2.88 0
v -2.56 -2.88 0
v -2.88 -2.88 0
v -3.2 -2.88 0
v -3.52 -2.88 0
v -0.32 -3.2 0
v -0.64 -3.2 0
v -0.96 -3.2 0
v -1.28 -3.2 0
v -1.6 -3.2 0
v -1.92 -3.2 0
v -2.24 -3.2 0
v -2.56 -3.2 0
v -2.88 -3.2 0
v -3.2 -3.2 0
v -3.52 -3.2 0
v -0.32 -3.52 0
v -0.64 -3.52 0
v -0.96 -3.52 0
v -1.28 -3.52 0
v -1.6 -3.52 0
v -1.92 -3.52 0
v -2.24 -3.52 0
v -2.56 -3.52 0
v -2.88 -3.52 0
v -3.2 -3.52 0
v -3.52 -3.52 0
v 0 -0.32 0
v -0.32 0 0
v 0 0 0
v -0.64 0 0
v -0.96 0 0
v -1.28 0 0
v -1.6 0 0
v -1.92 0 0
v -2.24 0 0
v -2.56 0 0
v -2.88 0 0
v -3.2 0 0
v -3.52 0 0
v -3.84 -0.32 0
v -3.84 0 0
v 0 -0.64 0
v -3.84 -0.64 0
v 0 -0.96 0
v -3.84 -0.96 0
v 0 -1.28 0
v -3.84 -1.28 0
v 0 -1.6 0
v -3.84 -1.6 0
v 0 -1.92 0
v -3.84 -1.92 0
v 0 -2.24 0
v -3.84 -2.24 0
v 0 -2.56 0
v -3.84 -2.56 0
v 0 -2.88 0
v -3.84 -2.88 0
v 0 -3.2 0
v -3.84 -3.2 0
v 0 -3.52 0
v -3.84 -3.52 0
v 0 -3.84 0
v -0.32 -3.84 0
v -0.64 -3.84 0
v -0.96 -3.84 0
v -1.28 -3.84 0
v -1.6 -3.84 0
v -1.92 -3.84 0
v -2.24 -3.84 0
v -2.56 -3.84 0
v -2.88 -3.84 0
v -3.2 -3.84 0
v -3.52 -3.84 0
v -3.84 -3.84 0

# Texture cooridinates (Count = 184)
vt 0.2501221 0.1835703
vt 0.3748779 0.1835703
vt 0.3748779 0.2053952
vt 0.2501221 0.2053952
vt 0.5001221 0.1835703
vt 0.6248779 0.1835703
vt 0.6248779 0.2053952
vt 0.5001221 0.2053952
vt 0.5001221 0.8456393
vt 0.6248779 0.8456393
vt 0.6248779 0.8674641
vt 0.5001221 0.8674641
vt 0.3751221 0.40426
vt 0.4998779 0.40426
vt 0.4998779 0.4260848
vt 0.3751221 0.4260848
vt 0.3751221 0.3821911
vt 0.4998779 0.3821911
vt 0.4998779 0.4040158
vt 0.3751221 0.4040158
vt 0.0001220703 0.0732255
vt 0.1248779 0.0732255
vt 0.1248779 0.09505033
vt 0.0001220703 0.09505033
vt 0.8751221 0.3380531
vt 0.9998779 0.3380531
vt 0.9998779 0.3598779
vt 0.8751221 0.3598779
vt 0.0001220703 0.0290876
vt 0.1248779 0.0290876
vt 0.1248779 0.05091244
vt 0.0001220703 0.05091244
vt 0.2501221 0.0732255
vt 0.3748779 0.0732255
vt 0.3748779 0.09505033
vt 0.2501221 0.09505033
vt 0.5001221 0.3380531
vt 0.6248779 0.3380531
vt 0.6248779 0.3598779
vt 0.5001221 0.3598779
vt 0.8751221 0.2718462
vt 0.9998779 0.2718462
vt 0.9998779 0.293671
vt 0.8751221 0.293671
vt 0.2501221 0.0290876
vt 0.3748779 0.0290876
vt 0.3748779 0.05091244
vt 0.2501221 0.05091244
vt 0.6251221 0.2497773
vt 0.7498779 0.2497773
vt 0.7498779 0.2716021
vt 0.6251221 0.2716021
vt 0.1251221 0.0732255
vt 0.2498779 0.0732255
vt 0.2498779 0.09505033
vt 0.1251221 0.09505033
vt 0.0001220703 0.05115658
vt 0.1248779 0.05115658
vt 0.1248779 0.07298136
vt 0.0001220703 0.07298136
vt 0.1251221 0.05115658
vt 0.2498779 0.05115658
vt 0.2498779 0.07298136
vt 0.1251221 0.07298136
vt 0.2501221 0.05115658
vt 0.3748779 0.05115658
vt 0.3748779 0.07298136
vt 0.2501221 0.07298136
vt 0.1251221 0.0290876
vt 0.2498779 0.0290876
vt 0.2498779 0.05091244
vt 0.1251221 0.05091244
vt 0.8751221 0.8235704
vt 0.9998779 0.8235704
vt 0.9998779 0.8453952
vt 0.8751221 0.8453952
vt 0.6251221 0.8235704
vt 0.7498779 0.8235704
vt 0.7498779 0.8453952
vt 0.6251221 0.8453952
vt 0.8751221 0.8015014
vt 0.9998779 0.8015014
vt 0.9998779 0.8233262
vt 0.8751221 0.8233262
vt 0.6251221 0.8015014
vt 0.7498779 0.8015014
vt 0.7498779 0.8233262
vt 0.6251221 0.8233262
vt 0.0001220703 0.1173635
vt 0.1248779 0.1173635
vt 0.1248779 0.1391883
vt 0.0001220703 0.1391883
vt 0.1251221 0.8897772
vt 0.2498779 0.8897772
vt 0.2498779 0.9116021
vt 0.1251221 0.9116021
vt 0.8751221 0.8897772
vt 0.9998779 0.8897772
vt 0.9998779 0.9116021
vt 0.8751221 0.9116021
vt 0.0001220703 0.4483979
vt 0.1248779 0.4483979
vt 0.1248779 0.4702228
vt 0.0001220703 0.4702228
vt 0.7501221 0.0732255
vt 0.8748779 0.0732255
vt 0.8748779 0.09505033
vt 0.7501221 0.09505033
vt 0.3751221 0.4925359
vt 0.4998779 0.4925359
vt 0.4998779 0.5143607
vt 0.3751221 0.5143607
vt 0.6251221 0.8456393
vt 0.7498779 0.8456393
vt 0.7498779 0.8674641
vt 0.6251221 0.8674641
vt 0.0001220703 0.6249497
vt 0.1248779 0.6249497
vt 0.1248779 0.6467745
vt 0.0001220703 0.6467745
vt 0.1251221 0.6249497
vt 0.2498779 0.6249497
vt 0.2498779 0.6467745
vt 0.1251221 0.6467745
vt 0.5001221 0.9559841
vt 0.6248779 0.9559841
vt 0.6248779 0.977809
vt 0.5001221 0.977809
vt 0.8751221 0.0290876
vt 0.9998779 0.0290876
vt 0.9998779 0.05091244
vt 0.8751221 0.05091244
vt 0.8751221 0.9780531
vt 0.9998779 0.9780531
vt 0.9998779 0.9998779
vt 0.8751221 0.9998779
vt 0.8751221 0.7794324
vt 0.9998779 0.7794324
vt 0.9998779 0.8012573
vt 0.8751221 0.8012573
vt 0.3751221 0.1173635
vt 0.4998779 0.1173635
vt 0.4998779 0.1391883
vt 0.3751221 0.1391883
vt 0.2501221 0.1173635
vt 0.3748779 0.1173635
vt 0.3748779 0.1391883
vt 0.2501221 0.1391883
vt 0.3751221 0.09529448
vt 0.4998779 0.09529448
vt 0.4998779 0.1171193
vt 0.3751221 0.1171193
vt 0.2501221 0.09529448
vt 0.3748779 0.09529448
vt 0.3748779 0.1171193
vt 0.2501221 0.1171193
vt 0.0001220703 0.6690876
vt 0.1248779 0.6690876
vt 0.1248779 0.6909124
vt 0.0001220703 0.6909124
vt 0.0001220703 0.7132255
vt 0.1248779 0.7132255
vt 0.1248779 0.7350503
vt 0.0001220703 0.7350503
vt 0.0001220703 0.6911566
vt 0.1248779 0.6911566
vt 0.1248779 0.7129813
vt 0.0001220703 0.7129813
vt 0.0001220703 0.3159841
vt 0.1248779 0.3159841
vt 0.1248779 0.337809
vt 0.0001220703 0.337809
vt 0.1251221 0.3159841
vt 0.2498779 0.3159841
vt 0.2498779 0.337809
vt 0.1251221 0.337809
vt 0.2501221 0.3159841
vt 0.3748779 0.3159841
vt 0.3748779 0.337809
vt 0.2501221 0.337809
vt 0.7501221 0.09529448
vt 0.8748779 0.09529448
vt 0.8748779 0.1171193
vt 0.7501221 0.1171193

# Normal
vn 0 0 -1

# Groups (Count = 11)

g mesh_0001
f 1/1/1 2/2/1 3/3/1 4/4/1
f 2/1/1 5/2/1 6/3/1 3/4/1
f 5/5/1 7/6/1 8/7/1 6/8/1
f 7/1/1 9/2/1 10/3/1 8/4/1
f 9/1/1 11/2/1 12/3/1 10/4/1
f 11/1/1 13/2/1 14/3/1 12/4/1
f 13/1/1 15/2/1 16/3/1 14/4/1
f 15/1/1 17/2/1 18/3/1 16/4/1
f 17/1/1 19/2/1 20/3/1 18/4/1
f 19/1/1 21/2/1 22/3/1 20/4/1
f 23/1/1 24/2/1 2/3/1 1/4/1
f 24/1/1 25/2/1 5/3/1 2/4/1
f 25/1/1 26/2/1 7/3/1 5/4/1
f 26/1/1 27/2/1 9/3/1 7/4/1
f 27/1/1 28/2/1 11/3/1 9/4/1
f 28/1/1 29/2/1 13/3/1 11/4/1
f 29/1/1 30/2/1 15/3/1 13/4/1
f 30/1/1 31/2/1 17/3/1 15/4/1
f 31/1/1 32/2/1 19/3/1 17/4/1
f 32/1/1 33/2/1 21/3/1 19/4/1
f 34/1/1 35/2/1 24/3/1 23/4/1
f 35/1/1 36/2/1 25/3/1 24/4/1
f 36/1/1 37/2/1 26/3/1 25/4/1
f 37/1/1 38/2/1 27/3/1 26/4/1
f 38/1/1 39/2/1 28/3/1 27/4/1
f 39/1/1 40/2/1 29/3/1 28/4/1
f 40/1/1 41/2/1 30/3/1 29/4/1
f 41/1/1 42/2/1 31/3/1 30/4/1
f 42/1/1 43/2/1 32/3/1 31/4/1
f 43/1/1 44/2/1 33/3/1 32/4/1
f 45/1/1 46/2/1 35/3/1 34/4/1
f 46/1/1 47/2/1 36/3/1 35/4/1
f 47/1/1 48/2/1 37/3/1 36/4/1
f 48/1/1 49/2/1 38/3/1 37/4/1
f 49/1/1 50/2/1 39/3/1 38/4/1
f 50/1/1 51/2/1 40/3/1 39/4/1
f 51/1/1 52/2/1 41/3/1 40/4/1
f 52/1/1 53/2/1 42/3/1 41/4/1
f 53/1/1 54/2/1 43/3/1 42/4/1
f 54/1/1 55/2/1 44/3/1 43/4/1
f 56/1/1 57/2/1 46/3/1 45/4/1
f 57/1/1 58/2/1 47/3/1 46/4/1
f 58/1/1 59/2/1 48/3/1 47/4/1
f 59/1/1 60/2/1 49/3/1 48/4/1
f 60/1/1 61/2/1 50/3/1 49/4/1
f 61/1/1 62/2/1 51/3/1 50/4/1
f 62/1/1 63/2/1 52/3/1 51/4/1
f 63/1/1 64/2/1 53/3/1 52/4/1
f 64/1/1 65/2/1 54/3/1 53/4/1
f 65/1/1 66/2/1 55/3/1 54/4/1
f 67/1/1 68/2/1 57/3/1 56/4/1
f 68/1/1 69/2/1 58/3/1 57/4/1
f 69/1/1 70/2/1 59/3/1 58/4/1
f 70/1/1 71/2/1 60/3/1 59/4/1
f 71/1/1 72/2/1 61/3/1 60/4/1
f 72/1/1 73/2/1 62/3/1 61/4/1
f 73/1/1 74/2/1 63/3/1 62/4/1
f 74/1/1 75/2/1 64/3/1 63/4/1
f 75/1/1 76/2/1 65/3/1 64/4/1
f 76/1/1 77/2/1 66/3/1 65/4/1
f 78/1/1 79/2/1 68/3/1 67/4/1
f 79/1/1 80/2/1 69/3/1 68/4/1
f 80/1/1 81/2/1 70/3/1 69/4/1
f 81/1/1 82/2/1 71/3/1 70/4/1
f 82/1/1 83/2/1 72/3/1 71/4/1
f 83/1/1 84/2/1 73/3/1 72/4/1
f 84/1/1 85/2/1 74/3/1 73/4/1
f 85/1/1 86/2/1 75/3/1 74/4/1
f 86/1/1 87/2/1 76/3/1 75/4/1
f 87/1/1 88/2/1 77/3/1 76/4/1
f 89/1/1 90/2/1 79/3/1 78/4/1
f 90/1/1 91/2/1 80/3/1 79/4/1
f 91/1/1 92/2/1 81/3/1 80/4/1
f 92/1/1 93/2/1 82/3/1 81/4/1
f 93/1/1 94/2/1 83/3/1 82/4/1
f 94/1/1 95/2/1 84/3/1 83/4/1
f 95/1/1 96/2/1 85/3/1 84/4/1
f 96/1/1 97/2/1 86/3/1 85/4/1
f 97/1/1 98/2/1 87/3/1 86/4/1
f 98/1/1 99/2/1 88/3/1 87/4/1
f 100/1/1 101/2/1 90/3/1 89/4/1
f 101/1/1 102/2/1 91/3/1 90/4/1
f 102/9/1 103/10/1 92/11/1 91/12/1
f 103/9/1 104/10/1 93/11/1 92/12/1
f 104/9/1 105/10/1 94/11/1 93/12/1
f 105/1/1 106/2/1 95/3/1 94/4/1
f 106/1/1 107/2/1 96/3/1 95/4/1
f 107/1/1 108/2/1 97/3/1 96/4/1
f 108/1/1 109/2/1 98/3/1 97/4/1
f 109/1/1 110/2/1 99/3/1 98/4/1
f 111/1/1 112/2/1 101/3/1 100/4/1
f 112/13/1 113/14/1 102/15/1 101/16/1
f 113/1/1 114/2/1 103/3/1 102/4/1
f 114/1/1 115/2/1 104/3/1 103/4/1
f 115/1/1 116/2/1 105/3/1 104/4/1
f 116/17/1 117/18/1 106/19/1 105/20/1
f 117/1/1 118/2/1 107/3/1 106/4/1
f 118/1/1 119/2/1 108/3/1 107/4/1
f 119/1/1 120/2/1 109/3/1 108/4/1
f 120/1/1 121/2/1 110/3/1 109/4/1

g mesh_0002
f 1/21/1 2/22/1 3/23/1 4/24/1
f 2/25/1 5/26/1 6/27/1 3/28/1
f 23/29/1 24/30/1 2/31/1 1/32/1
f 24/33/1 25/34/1 5/35/1 2/36/1
f 25/25/1 26/26/1 7/27/1 5/28/1
f 34/37/1 35/38/1 24/39/1 23/40/1
f 35/33/1 36/34/1 25/35/1 24/36/1
f 36/33/1 37/34/1 26/35/1 25/36/1
f 37/17/1 38/18/1 27/19/1 26/20/1
f 45/41/1 46/42/1 35/43/1 34/44/1
f 46/33/1 47/34/1 36/35/1 35/36/1
f 47/33/1 48/34/1 37/35/1 36/36/1
f 48/17/1 49/18/1 38/19/1 37/20/1
f 56/13/1 57/14/1 46/15/1 45/16/1
f 57/33/1 58/34/1 47/35/1 46/36/1
f 58/45/1 59/46/1 48/47/1 47/48/1
f 59/17/1 60/18/1 49/19/1 48/20/1
f 67/13/1 68/14/1 57/15/1 56/16/1
f 68/33/1 69/34/1 58/35/1 57/36/1
f 69/33/1 70/34/1 59/35/1 58/36/1
f 70/17/1 71/18/1 60/19/1 59/20/1
f 78/13/1 79/14/1 68/15/1 67/16/1
f 79/33/1 80/34/1 69/35/1 68/36/1
f 80/33/1 81/34/1 70/35/1 69/36/1
f 81/25/1 82/26/1 71/27/1 70/28/1
f 90/37/1 91/38/1 80/39/1 79/40/1
f 91/33/1 92/34/1 81/35/1 80/36/1
f 92/33/1 93/34/1 82/35/1 81/36/1
f 93/25/1 94/26/1 83/27/1 82/28/1
f 100/9/1 101/10/1 90/11/1 89/12/1
f 101/9/1 102/10/1 91/11/1 90/12/1
f 105/9/1 106/10/1 95/11/1 94/12/1
f 106/9/1 107/10/1 96/11/1 95/12/1
f 107/9/1 108/10/1 97/11/1 96/12/1
f 108/9/1 109/10/1 98/11/1 97/12/1
f 109/9/1 110/10/1 99/11/1 98/12/1
f 112/49/1 113/50/1 102/51/1 101/52/1
f 113/33/1 114/34/1 103/35/1 102/36/1
f 114/33/1 115/34/1 104/35/1 103/36/1
f 115/33/1 116/34/1 105/35/1 104/36/1
f 119/41/1 120/42/1 109/43/1 108/44/1

g mesh_0003
f 28/53/1 29/54/1 13/55/1 11/56/1
f 29/53/1 30/54/1 15/55/1 13/56/1
f 30/53/1 31/54/1 17/55/1 15/56/1
f 38/57/1 39/58/1 28/59/1 27/60/1
f 39/61/1 40/62/1 29/63/1 28/64/1
f 40/61/1 41/62/1 30/63/1 29/64/1
f 41/61/1 42/62/1 31/63/1 30/64/1
f 42/65/1 43/66/1 32/67/1 31/68/1
f 49/57/1 50/58/1 39/59/1 38/60/1
f 50/61/1 51/62/1 40/63/1 39/64/1
f 51/61/1 52/62/1 41/63/1 40/64/1
f 52/61/1 53/62/1 42/63/1 41/64/1
f 53/65/1 54/66/1 43/67/1 42/68/1
f 60/57/1 61/58/1 50/59/1 49/60/1
f 61/61/1 62/62/1 51/63/1 50/64/1
f 62/61/1 63/62/1 52/63/1 51/64/1
f 63/61/1 64/62/1 53/63/1 52/64/1
f 64/65/1 65/66/1 54/67/1 53/68/1
f 71/57/1 72/58/1 61/59/1 60/60/1
f 72/61/1 73/62/1 62/63/1 61/64/1
f 73/61/1 74/62/1 63/63/1 62/64/1
f 74/61/1 75/62/1 64/63/1 63/64/1
f 75/65/1 76/66/1 65/67/1 64/68/1
f 82/57/1 83/58/1 72/59/1 71/60/1
f 83/61/1 84/62/1 73/63/1 72/64/1
f 84/61/1 85/62/1 74/63/1 73/64/1
f 85/61/1 86/62/1 75/63/1 74/64/1
f 86/65/1 87/66/1 76/67/1 75/68/1
f 94/69/1 95/70/1 84/71/1 83/72/1
f 95/69/1 96/70/1 85/71/1 84/72/1
f 96/69/1 97/70/1 86/71/1 85/72/1

g mesh_0004
f 102/73/1 103/74/1 92/75/1 91/76/1
f 103/77/1 104/78/1 93/79/1 92/80/1
f 104/73/1 105/74/1 94/75/1 93/76/1
f 113/81/1 114/82/1 103/83/1 102/84/1
f 114/85/1 115/86/1 104/87/1 103/88/1
f 115/81/1 116/82/1 105/83/1 104/84/1

g mesh_0005
f 9/89/1 11/90/1 12/91/1 10/92/1
f 11/93/1 13/94/1 14/95/1 12/96/1
f 13/93/1 15/94/1 16/95/1 14/96/1
f 15/93/1 17/94/1 18/95/1 16/96/1
f 17/97/1 19/98/1 20/99/1 18/100/1
f 19/101/1 21/102/1 22/103/1 20/104/1
f 32/101/1 33/102/1 21/103/1 19/104/1
f 43/101/1 44/102/1 33/103/1 32/104/1
f 54/101/1 55/102/1 44/103/1 43/104/1
f 65/101/1 66/102/1 55/103/1 54/104/1
f 76/101/1 77/102/1 66/103/1 65/104/1
f 87/101/1 88/102/1 77/103/1 76/104/1
f 98/101/1 99/102/1 88/103/1 87/104/1
f 109/101/1 110/102/1 99/103/1 98/104/1
f 120/101/1 121/102/1 110/103/1 109/104/1

g mesh_0006
f 11/105/1 13/106/1 14/107/1 12/108/1
f 15/109/1 17/110/1 18/111/1 16/112/1

g mesh_0007
f 9/113/1 11/114/1 12/115/1 10/116/1
f 11/113/1 13/114/1 14/115/1 12/116/1
f 13/113/1 15/114/1 16/115/1 14/116/1
f 15/113/1 17/114/1 18/115/1 16/116/1

g mesh_0008
f 2/117/1 5/118/1 6/119/1 3/120/1
f 5/121/1 7/122/1 8/123/1 6/124/1
f 7/125/1 9/126/1 10/127/1 8/128/1
f 31/129/1 32/130/1 19/131/1 17/132/1
f 35/133/1 36/134/1 25/135/1 24/136/1
f 42/137/1 43/138/1 32/139/1 31/140/1
f 78/141/1 79/142/1 68/143/1 67/144/1
f 83/145/1 84/146/1 73/147/1 72/148/1
f 84/141/1 85/142/1 74/143/1 73/144/1
f 85/145/1 86/146/1 75/147/1 74/148/1
f 86/141/1 87/142/1 76/143/1 75/144/1
f 89/149/1 90/150/1 79/151/1 78/152/1
f 94/153/1 95/154/1 84/155/1 83/156/1
f 95/149/1 96/150/1 85/151/1 84/152/1
f 96/153/1 97/154/1 86/155/1 85/156/1
f 97/149/1 98/150/1 87/151/1 86/152/1

g mesh_0009
f 90/157/1 91/158/1 80/159/1 79/160/1
f 93/157/1 94/158/1 83/159/1 82/160/1

g mesh_0010
f 68/161/1 69/162/1 58/163/1 57/164/1
f 71/161/1 72/162/1 61/163/1 60/164/1
f 79/165/1 80/166/1 69/167/1 68/168/1
f 82/165/1 83/166/1 72/167/1 71/168/1
f 116/169/1 117/170/1 106/171/1 105/172/1
f 117/173/1 118/174/1 107/175/1 106/176/1
f 118/177/1 119/178/1 108/179/1 107/180/1

g mesh_0011
f 122/181/1 4/182/1 123/183/1 124/184/1
f 4/181/1 3/182/1 125/183/1 123/184/1
f 3/181/1 6/182/1 126/183/1 125/184/1
f 6/181/1 8/182/1 127/183/1 126/184/1
f 8/181/1 10/182/1 128/183/1 127/184/1
f 10/181/1 12/182/1 129/183/1 128/184/1
f 12/181/1 14/182/1 130/183/1 129/184/1
f 14/181/1 16/182/1 131/183/1 130/184/1
f 16/181/1 18/182/1 132/183/1 131/184/1
f 18/181/1 20/182/1 133/183/1 132/184/1
f 20/181/1 22/182/1 134/183/1 133/184/1
f 22/181/1 135/182/1 136/183/1 134/184/1
f 137/181/1 1/182/1 4/183/1 122/184/1
f 17/181/1 19/182/1 20/183/1 18/184/1
f 19/181/1 21/182/1 22/183/1 20/184/1
f 21/181/1 138/182/1 135/183/1 22/184/1
f 139/181/1 23/182/1 1/183/1 137/184/1
f 31/181/1 32/182/1 19/183/1 17/184/1
f 32/181/1 33/182/1 21/183/1 19/184/1
f 33/181/1 140/182/1 138/183/1 21/184/1
f 141/181/1 34/182/1 23/183/1 139/184/1
f 35/181/1 36/182/1 25/183/1 24/184/1
f 43/181/1 44/182/1 33/183/1 32/184/1
f 44/181/1 142/182/1 140/183/1 33/184/1
f 143/181/1 45/182/1 34/183/1 141/184/1
f 54/181/1 55/182/1 44/183/1 43/184/1
f 55/181/1 144/182/1 142/183/1 44/184/1
f 145/181/1 56/182/1 45/183/1 143/184/1
f 65/181/1 66/182/1 55/183/1 54/184/1
f 66/181/1 146/182/1 144/183/1 55/184/1
f 147/181/1 67/182/1 56/183/1 145/184/1
f 76/181/1 77/182/1 66/183/1 65/184/1
f 77/181/1 148/182/1 146/183/1 66/184/1
f 149/181/1 78/182/1 67/183/1 147/184/1
f 87/181/1 88/182/1 77/183/1 76/184/1
f 88/181/1 150/182/1 148/183/1 77/184/1
f 151/181/1 89/182/1 78/183/1 149/184/1
f 89/181/1 90/182/1 79/183/1 78/184/1
f 90/181/1 91/182/1 80/183/1 79/184/1
f 93/181/1 94/182/1 83/183/1 82/184/1
f 94/181/1 95/182/1 84/183/1 83/184/1
f 95/181/1 96/182/1 85/183/1 84/184/1
f 96/181/1 97/182/1 86/183/1 85/184/1
f 97/181/1 98/182/1 87/183/1 86/184/1
f 98/181/1 99/182/1 88/183/1 87/184/1
f 99/181/1 152/182/1 150/183/1 88/184/1
f 153/181/1 100/182/1 89/183/1 151/184/1
f 100/181/1 101/182/1 90/183/1 89/184/1
f 101/181/1 102/182/1 91/183/1 90/184/1
f 105/181/1 106/182/1 95/183/1 94/184/1
f 106/181/1 107/182/1 96/183/1 95/184/1
f 107/181/1 108/182/1 97/183/1 96/184/1
f 108/181/1 109/182/1 98/183/1 97/184/1
f 109/181/1 110/182/1 99/183/1 98/184/1
f 110/181/1 154/182/1 152/183/1 99/184/1
f 155/181/1 111/182/1 100/183/1 153/184/1
f 120/181/1 121/182/1 110/183/1 109/184/1
f 121/181/1 156/182/1 154/183/1 110/184/1
f 157/181/1 158/182/1 111/183/1 155/184/1
f 158/181/1 159/182/1 112/183/1 111/184/1
f 159/181/1 160/182/1 113/183/1 112/184/1
f 160/181/1 161/182/1 114/183/1 113/184/1
f 161/181/1 162/182/1 115/183/1 114/184/1
f 162/181/1 163/182/1 116/183/1 115/184/1
f 163/181/1 164/182/1 117/183/1 116/184/1
f 164/181/1 165/182/1 118/183/1 117/184/1
f 165/181/1 166/182/1 119/183/1 118/184/1
f 166/181/1 167/182/1 120/183/1 119/184/1
f 167/181/1 168/182/1 121/183/1 120/184/1
f 168/181/1 169/182/1 156/183/1 121/184/1

